<svg width="74" height="73" viewBox="0 0 74 73" fill="none" xmlns="http://www.w3.org/2000/svg">
<rect x="0.929688" width="73" height="73" rx="14" fill="#D9D9D9"/>
<rect x="0.929688" width="73" height="73" rx="14" fill="url(#paint0_linear_70959_3093)"/>
<path d="M34.9294 11.2359C33.2701 11.5915 31.7886 12.4211 31.275 13.2705C30.9195 13.8631 30.8405 14.3767 30.7022 17.557C30.5244 21.6657 29.9516 26.5645 29.2207 30.3571C28.5293 33.9522 26.7318 40.9647 26.475 40.9647C26.4552 40.9647 25.4083 40.4906 24.1836 39.898C21.4576 38.5943 19.8379 38.1399 17.8823 38.1202C16.7564 38.1202 16.223 38.2189 15.6107 38.535C12.4699 40.1943 12.0551 43.6709 14.544 47.3845C17.902 52.4018 26.3565 56.9253 36.6479 59.197C43.7394 60.7772 50.574 60.8365 54.9 59.3352C57.863 58.3278 60.0754 56.4908 60.6482 54.5549C61.0235 53.2907 61.0235 52.9352 60.6482 51.7105C59.8581 49.0635 56.8161 47.8783 50.732 47.8783H47.8678L48.0061 47.0289C48.5789 43.5721 50.0604 39.2659 51.9567 35.5325C53.6555 32.1547 55.137 29.7645 58.2976 25.32C60.2729 22.5546 60.6877 21.8632 60.5297 21.5669C60.2729 21.0731 59.9963 21.1126 58.7519 21.8039C57.4284 22.5348 57.3099 22.5348 57.6852 21.8039C59.147 18.9792 55.1173 15.0878 48.2431 12.7372C46.9592 12.2829 45.0036 11.7495 43.8974 11.5125C41.2702 10.9791 36.6874 10.8211 34.9294 11.2359ZM47.4727 13.5273C48.5592 13.9026 49.9617 14.6928 49.5468 14.6928C49.4283 14.6928 48.8555 14.4755 48.2629 14.1989C47.69 13.9421 46.7419 13.6063 46.1888 13.4878C45.6159 13.3495 45.1419 13.1717 45.1419 13.073C45.1419 12.8557 46.0308 13.0137 47.4727 13.5273ZM46.1295 13.8039C47.0579 14.1002 48.3419 14.6137 48.9938 14.9298C50.2382 15.5619 51.5419 16.4508 51.4037 16.5891C51.3642 16.6286 50.574 16.3125 49.6654 15.8977C46.7814 14.5545 43.1073 13.5076 41.2109 13.5076C40.7764 13.5076 40.3616 13.4088 40.2825 13.2903C40.006 12.8359 44.2727 13.2113 46.1295 13.8039ZM33.6849 19.0582C36.3319 21.1916 40.2628 22.7916 46.1295 24.1151C48.0851 24.5694 48.8555 24.6484 51.6604 24.6484C54.5049 24.6484 55.0778 24.5892 56.2037 24.2138C56.9148 23.9768 57.5469 23.7793 57.6259 23.7793C57.705 23.7793 56.7568 25.2608 55.5321 27.0781C51.3444 33.2806 49.4283 37.1128 47.8481 42.3474C47.1962 44.54 46.1295 49.7351 46.1295 50.8018C46.1295 51.8685 45.9715 51.9277 43.127 51.908C37.7541 51.8487 32.8751 50.5055 27.9565 47.6808C26.9886 47.1277 26.1392 46.5943 26.0997 46.5153C26.0009 46.3771 27.0281 43.4141 27.2059 43.2165C27.2454 43.177 28.7466 43.8881 30.5244 44.7968C35.0677 47.0684 40.5788 48.8067 42.7122 48.6289C43.5418 48.5697 43.4233 48.8265 44.0554 45.4092C44.5888 42.4066 46.0505 38.4362 48.3616 33.7745C50.6925 29.0337 50.7123 28.9151 49.211 28.9151C45.1814 28.9151 39.6109 27.3349 34.7319 24.8262C31.4331 23.1274 31.5516 23.2657 31.7294 21.6657C31.8281 20.9348 31.8874 19.7891 31.8874 19.1175C31.9071 17.7348 32.0059 17.557 32.4602 18.0113C32.6578 18.1891 33.1911 18.6632 33.6849 19.0582ZM44.1147 19.5126C44.4505 19.5916 44.7468 19.7496 44.7468 19.8484C44.7468 20.1644 43.5616 19.8089 41.5468 18.9002C39.8282 18.1298 40.164 17.9916 41.9418 18.7422C42.7715 19.0977 43.7591 19.4533 44.1147 19.5126ZM40.0258 18.9397C42.5739 20.2237 46.7221 21.4089 48.7172 21.4089C49.1715 21.4089 49.4876 21.5076 49.4876 21.6262C49.4876 21.9817 45.6752 21.7052 44.0554 21.2311C42.2776 20.6978 39.3541 19.2953 38.801 18.7224C38.2084 18.0903 38.3862 18.1298 40.0258 18.9397ZM34.5146 26.1299C37.6158 27.6904 41.29 29.0337 43.8184 29.5275C45.0036 29.7448 45.1616 29.8435 45.2604 30.2781C45.4184 31.0682 46.1098 32.3917 46.6234 32.8658L47.0777 33.3004L46.2876 34.9992C45.0628 37.6659 44.3517 39.5029 43.6604 41.7548L43.0085 43.8091L42.0406 44.0264C40.7566 44.3227 39.927 44.9351 39.4727 45.903C39.2751 46.3376 38.9986 46.6931 38.8406 46.6931C37.7936 46.7129 32.0652 44.3425 29.1812 42.6832C27.5022 41.735 27.5417 42.0906 28.6083 38.4757C29.517 35.414 30.6034 30.2979 31.0577 27.0781C31.2553 25.6953 31.4133 24.5694 31.4133 24.5694C31.4133 24.5694 32.8158 25.2608 34.5146 26.1299ZM20.1934 46.9104C24.9342 50.7425 29.4182 53.0339 35.2652 54.5747C39.4134 55.6611 40.9344 55.8587 45.3394 55.8784C49.1123 55.8784 49.5271 55.8389 51.5222 55.3253C53.9518 54.713 54.4259 54.6735 54.4259 55.0685C54.4259 55.4833 52.6284 56.2932 50.3765 56.8858C43.4628 58.7229 30.88 55.9772 23.3145 50.9993C21.5169 49.8339 17.8823 46.3771 17.8823 45.8437C17.8823 45.2314 18.4156 45.4882 20.1934 46.9104Z" fill="white"/>
<path d="M35.0077 31.6809C33.0126 32.2735 31.7681 34.6241 32.3014 36.797C32.7558 38.7328 34.5731 40.1748 36.5484 40.1748C40.4398 40.1748 42.2374 35.434 39.3929 32.7278C38.2077 31.6019 36.5682 31.2068 35.0077 31.6809ZM37.5953 32.5698C37.9509 32.6685 38.0299 32.8068 37.9509 33.1229C37.8916 33.3599 38.0102 33.7155 38.2472 34.0118C38.4447 34.2883 38.6225 34.7229 38.6225 34.9797C38.6225 35.3945 38.5632 35.434 38.1879 35.3352C37.9311 35.2562 37.5756 34.9797 37.378 34.7229C36.9237 34.1303 36.0546 34.071 36.0546 34.6439C36.0546 34.8809 36.2916 35.1575 36.7064 35.355C38.5632 36.3032 38.7805 37.6069 37.22 38.4168C36.7855 38.634 36.4496 38.9303 36.4496 39.1081C36.4496 39.3254 36.3311 39.3847 36.0546 39.3057C35.8373 39.2464 35.4817 39.1279 35.2644 39.0686C34.9681 38.9896 34.8891 38.8513 34.9681 38.5748C35.0472 38.3377 34.9286 38.0019 34.6916 37.6859C34.2768 37.1723 34.1385 36.3229 34.4348 36.1649C34.6916 36.0069 35.462 36.4019 35.462 36.718C35.462 37.0933 36.3114 37.5081 36.7262 37.3501C37.2595 37.1328 37.0818 36.8562 35.9558 36.1451C34.7114 35.3352 34.4348 34.7229 34.9681 33.9328C35.1459 33.6365 35.5607 33.3204 35.8768 33.2019C36.2324 33.0636 36.4496 32.8266 36.4496 32.6093C36.4496 32.3525 36.5484 32.2735 36.8052 32.3525C36.983 32.392 37.3583 32.4908 37.5953 32.5698Z" fill="white"/>
<defs>
<linearGradient id="paint0_linear_70959_3093" x1="37.4263" y1="-6.84609" x2="37.4263" y2="40.4473" gradientUnits="userSpaceOnUse">
<stop stop-color="#5E65D4"/>
<stop offset="1" stop-color="#5692E8"/>
</linearGradient>
</defs>
</svg>
