<svg width="129" height="113" viewBox="0 0 129 113" fill="none" xmlns="http://www.w3.org/2000/svg">
<g filter="url(#filter0_d_70959_3162)">
<rect x="23.9297" y="20" width="73" height="73" rx="14" fill="#D9D9D9"/>
<rect x="23.9297" y="20" width="73" height="73" rx="14" fill="#A68272"/>
</g>
<path d="M48.5195 40.5423C48.5195 40.1803 48.8137 39.8861 49.1757 39.8861H66.1562C66.5182 39.8861 66.8124 40.1803 66.8124 40.5423C66.8124 40.9044 66.5182 41.1986 66.1562 41.1986H49.1757C48.8137 41.1986 48.5195 40.9044 48.5195 40.5423ZM49.1757 48.028H72.1434C72.5054 48.028 72.7996 47.7337 72.7996 47.3717C72.7996 47.0097 72.5054 46.7155 72.1434 46.7155H49.1757C48.8137 46.7155 48.5195 47.0097 48.5195 47.3717C48.5195 47.7337 48.8137 48.028 49.1757 48.028ZM85.3668 80.3887C85.1338 81.4245 84.4732 82.3225 83.5544 82.8519C82.9715 83.1887 82.3109 83.3616 81.6469 83.3616C81.2663 83.3616 80.8846 83.3047 80.5149 83.1898C79.5929 82.9022 78.8666 82.2842 78.4696 81.4497L75.7287 75.678H43.0605C42.6985 75.678 42.4043 75.3837 42.4043 75.0217V31.2969C42.4043 30.9348 42.6985 30.6406 43.0605 30.6406H71.1207V30.6417C71.2913 30.6417 71.4598 30.7073 71.5844 30.832L78.3219 37.5695C78.4477 37.6953 78.5123 37.8627 78.5123 38.0333H78.5134V51.6144C81.0454 53.7909 82.651 57.0153 82.651 60.6083C82.651 63.9781 81.239 67.0231 78.9749 69.1844L84.8812 77.7463C85.4073 78.5086 85.579 79.4459 85.3668 80.3887ZM70.7937 50.0623C64.9782 50.0623 60.2477 54.7939 60.2477 60.6083C60.2477 66.4227 64.9793 71.1542 70.7937 71.1542C76.608 71.1542 81.3396 66.4227 81.3396 60.6083C81.3396 54.7939 76.6091 50.0623 70.7937 50.0623ZM71.7769 37.3781H76.2734L71.7769 32.8817V37.3781ZM75.1063 74.3644L73.9962 72.0281C72.9768 72.3147 71.9027 72.4678 70.7937 72.4678C67.2904 72.4678 64.1371 70.9398 61.9638 68.5161H49.1757C48.8137 68.5161 48.5195 68.2219 48.5195 67.8598C48.5195 67.4978 48.8137 67.2036 49.1757 67.2036H60.9412C59.8627 65.598 59.1671 63.7145 58.9834 61.6867H49.1757C48.8137 61.6867 48.5195 61.3925 48.5195 61.0305C48.5195 60.6684 48.8137 60.3742 49.1757 60.3742H58.9374C58.9768 58.3759 59.5127 56.498 60.426 54.8573H49.1757C48.8137 54.8573 48.5195 54.5631 48.5195 54.2011C48.5195 53.8391 48.8137 53.5448 49.1757 53.5448H61.2737C63.4371 50.6377 66.8988 48.7509 70.7926 48.7509C73.1518 48.7509 75.3513 49.4433 77.2009 50.6355V38.6906H71.1196C70.7576 38.6906 70.4634 38.3964 70.4634 38.0344V31.9531H43.7168V74.3644H75.1063ZM83.8016 78.4933L77.972 70.0419C77.1418 70.6752 76.2263 71.2012 75.2452 71.6005L79.6552 80.8875C79.8926 81.3873 80.3366 81.7603 80.9043 81.9375C81.5595 82.1409 82.3043 82.0589 82.8971 81.7166C83.4899 81.3742 83.934 80.7705 84.0849 80.1011C84.2173 79.5192 84.1155 78.9483 83.8016 78.4933ZM70.7937 53.5973C68.4891 53.5973 66.6155 55.472 66.6155 57.7755C66.6155 58.1375 66.9098 58.4317 67.2718 58.4317C67.6338 58.4317 67.928 58.1375 67.928 57.7755C67.928 56.195 69.2132 54.9098 70.7937 54.9098C72.3741 54.9098 73.6593 56.195 73.6593 57.7755C73.6593 59.0092 72.874 60.1019 71.7048 60.4934C70.7521 60.8128 70.1374 61.667 70.1374 62.6711V64.2581C70.1374 64.6202 70.4316 64.9144 70.7937 64.9144C71.1557 64.9144 71.4499 64.6202 71.4499 64.2581V62.6711C71.4499 62.2336 71.7069 61.8759 72.1215 61.737C73.8266 61.1661 74.9718 59.5736 74.9718 57.7744C74.9718 55.472 73.0971 53.5973 70.7937 53.5973ZM70.7937 66.2969C70.4316 66.2969 70.1374 66.5911 70.1374 66.9531V66.9652C70.1374 67.3272 70.4316 67.6214 70.7937 67.6214C71.1557 67.6214 71.4499 67.3272 71.4499 66.9652V66.9531C71.4499 66.59 71.1557 66.2969 70.7937 66.2969Z" fill="white"/>
<defs>
<filter id="filter0_d_70959_3162" x="-7.47031" y="-7.4" width="135.8" height="135.8" filterUnits="userSpaceOnUse" color-interpolation-filters="sRGB">
<feFlood flood-opacity="0" result="BackgroundImageFix"/>
<feColorMatrix in="SourceAlpha" type="matrix" values="0 0 0 0 0 0 0 0 0 0 0 0 0 0 0 0 0 0 127 0" result="hardAlpha"/>
<feOffset dy="4"/>
<feGaussianBlur stdDeviation="15.7"/>
<feComposite in2="hardAlpha" operator="out"/>
<feColorMatrix type="matrix" values="0 0 0 0 0.854902 0 0 0 0 0.686275 0 0 0 0 0.584314 0 0 0 1 0"/>
<feBlend mode="normal" in2="BackgroundImageFix" result="effect1_dropShadow_70959_3162"/>
<feBlend mode="normal" in="SourceGraphic" in2="effect1_dropShadow_70959_3162" result="shape"/>
</filter>
</defs>
</svg>
