<svg width="129" height="113" viewBox="0 0 129 113" fill="none" xmlns="http://www.w3.org/2000/svg">
<g filter="url(#filter0_d_70959_3169)">
<rect x="23.9297" y="20" width="73" height="73" rx="14" fill="#D9D9D9"/>
<rect x="23.9297" y="20" width="73" height="73" rx="14" fill="#A68272"/>
</g>
<path d="M85.6495 46.5105C85.5322 43.3076 83.004 40.8299 78.9433 39.8185C80.1497 38.7259 80.9088 37.1478 80.9088 35.3954C80.9088 32.107 78.2335 29.4316 74.9451 29.4316C71.6567 29.4316 68.9815 32.107 68.9815 35.3954C68.9815 37.1474 69.7403 38.7254 70.9463 39.8179C68.5383 40.421 66.6182 41.5584 65.4666 43.0693C64.1417 41.8445 62.3718 41.0942 60.4295 41.0942C58.4872 41.0942 56.7177 41.8442 55.3928 43.0688C54.2432 41.5588 52.3237 40.4219 49.9151 39.8185C51.1214 38.7259 51.8805 37.1478 51.8805 35.3955C51.8805 32.1071 49.2053 29.4317 45.9169 29.4317C42.6285 29.4317 39.9532 32.1071 39.9532 35.3955C39.9532 37.1475 40.712 38.7255 41.9179 39.8179C37.856 40.8289 35.3267 43.3071 35.2094 46.5105C35.2091 46.5184 35.209 46.5262 35.209 46.5342V51.251C35.209 51.6067 35.4973 51.895 35.853 51.895H53.8141C55.0452 54.2998 57.5473 55.9509 60.4295 55.9509C63.3117 55.9509 65.8138 54.2999 67.0449 51.895H85.006C85.3618 51.895 85.65 51.6066 85.65 51.251V46.5342C85.65 46.5263 85.65 46.5185 85.6496 46.5105H85.6495ZM70.2694 35.3955C70.2694 32.8174 72.367 30.7198 74.9451 30.7198C77.5232 30.7198 79.6207 32.8174 79.6207 35.3955C79.6207 37.9736 77.5232 40.0741 74.9451 40.0741C72.367 40.0741 70.2694 37.9752 70.2694 35.3955ZM41.2412 35.3955C41.2412 32.8174 43.3387 30.7198 45.9168 30.7198C48.4949 30.7198 50.5924 32.8174 50.5924 35.3955C50.5924 37.9736 48.4949 40.0741 45.9168 40.0741C43.3387 40.0741 41.2412 37.9752 41.2412 35.3955ZM36.497 50.607V46.5462C36.6301 43.1205 40.1346 41.3524 43.4414 40.8217C44.196 41.1677 45.0338 41.3621 45.9168 41.3621C46.7998 41.3621 47.6376 41.1677 48.3921 40.8217C51.2069 41.2696 53.4007 42.4285 54.5091 44.0422C53.5636 45.2886 53.0012 46.8409 53.0012 48.5225C53.0012 49.2461 53.1071 49.9451 53.301 50.6069H36.4971L36.497 50.607ZM60.4294 54.6629C57.0436 54.6629 54.289 51.9084 54.289 48.5227C54.289 45.1369 57.0436 42.3823 60.4294 42.3823C63.8152 42.3823 66.5697 45.1369 66.5697 48.5227C66.5697 51.9084 63.8152 54.6629 60.4294 54.6629ZM84.3618 50.607H67.5579C67.7517 49.9452 67.8577 49.2463 67.8577 48.5227C67.8577 46.8412 67.2954 45.289 66.3499 44.0427C67.461 42.428 69.6556 41.2688 72.4689 40.8215C73.2237 41.1677 74.0619 41.3622 74.945 41.3622C75.8281 41.3622 76.6652 41.1679 77.4195 40.8221C80.7257 41.3532 84.2286 43.1214 84.3617 46.5462V50.607H84.3618ZM85.0058 54.9857H79.068C78.7124 54.9857 78.4241 55.274 78.4241 55.6297V57.373H73.1505L65.7929 56.2779C64.4572 56.0776 63.2351 56.3922 62.1607 57.2131L60.3978 58.5602L58.6813 57.2355C57.6019 56.4057 56.3735 56.0871 55.0305 56.2868L47.7115 57.373H42.4347V55.6297C42.4347 55.2739 42.1464 54.9857 41.7907 54.9857H35.8531C35.4974 54.9857 35.2091 55.274 35.2091 55.6297V71.7197C35.2091 72.0754 35.4974 72.3637 35.8531 72.3637H41.7908C42.1465 72.3637 42.4348 72.0753 42.4348 71.7197V69.9763H43.5996C44.0888 69.9763 44.5029 70.1094 44.9048 70.3964L45.1119 70.5434L44.2492 71.4047C43.3437 72.312 43.4959 73.779 44.6111 74.8931C45.1322 75.4136 45.8108 75.7822 46.4865 75.8551C46.4587 76.5713 46.7872 77.3557 47.4514 78.0198C48.0898 78.6582 48.8392 78.9867 49.5324 78.9867C49.7916 78.9867 50.0427 78.9402 50.2774 78.8474C50.4179 79.3349 50.7091 79.8242 51.1463 80.2614C51.7844 80.8995 52.5334 81.2278 53.2263 81.2278C53.4442 81.2278 53.6558 81.1934 53.8573 81.1279C53.9911 81.6354 54.2889 82.1471 54.7445 82.6022C55.3829 83.2401 56.1321 83.5682 56.8247 83.5682C57.3512 83.5682 57.8452 83.3785 58.2328 82.9909L59.9811 81.2426C60.0052 81.2185 60.0279 81.1938 60.0505 81.169L62.7573 83.1129C63.1057 83.3638 63.4986 83.4844 63.9024 83.4844C64.6921 83.4844 65.5221 83.0227 66.1362 82.1708C66.5112 81.6507 66.723 81.1003 66.7747 80.5797C67.168 80.6421 67.5836 80.581 67.997 80.3946C68.996 79.9443 69.8044 78.8408 69.9431 77.7502C70.9296 77.969 71.9643 77.3565 72.6021 76.4711C73.1478 75.7137 73.34 74.9025 73.1911 74.1997C73.2979 74.1684 73.4052 74.1287 73.5127 74.0803C74.5425 73.6159 75.4025 72.4309 75.5132 71.3237C75.5341 71.1154 75.528 70.9153 75.4975 70.7249L75.9623 70.3951C76.3679 70.1054 76.7708 69.9762 77.2688 69.9762H78.4245V71.7196C78.4245 72.0753 78.7128 72.3635 79.0685 72.3635H85.0062C85.362 72.3635 85.6502 72.0752 85.6502 71.7196V55.6296C85.6502 55.2738 85.3619 54.9856 85.0062 54.9856L85.0058 54.9857ZM41.1468 71.0757H36.4971V56.2737H41.1468V71.0757ZM45.16 72.3155L46.9086 70.5698C46.9653 70.513 47.1128 70.3652 47.4029 70.3652C47.4827 70.3652 47.5732 70.3763 47.6758 70.4037C48.3084 70.5727 48.9613 71.2252 49.1311 71.8581C49.2571 72.3279 49.0436 72.548 48.969 72.6226L47.2181 74.3735C46.7395 74.8517 45.9412 74.4013 45.5214 73.9819C45.1708 73.6315 44.6441 72.8324 45.16 72.3155ZM48.3623 77.1091C48.0064 76.7532 47.4671 75.9462 47.974 75.4392L48.1288 75.2845C48.1288 75.2845 48.1291 75.2841 48.1294 75.2839L49.8772 73.5361C49.8772 73.5361 49.8774 73.5357 49.8777 73.5356L51.6982 71.7151C51.8466 71.5668 52.0205 71.508 52.2014 71.508C52.6387 71.508 53.1163 71.8516 53.3681 72.1034C53.724 72.4593 54.2633 73.2663 53.7564 73.7732L50.0323 77.4972C49.5253 78.0044 48.7185 77.4649 48.3625 77.109L48.3623 77.1091ZM53.7257 79.7386C53.2191 80.245 52.4127 79.7064 52.0569 79.3508C51.6436 78.9374 51.1988 78.1524 51.6675 77.6835L54.6668 74.6842C54.815 74.536 54.9888 74.4773 55.1696 74.4773C55.606 74.4773 56.0827 74.8197 56.334 75.0708C56.7485 75.4848 57.1945 76.2718 56.7252 76.7421L56.1445 77.3221C56.1299 77.3359 56.1151 77.3491 56.1007 77.3635L54.3524 79.1118C54.3488 79.1154 54.3455 79.1192 54.342 79.1228L53.7258 79.7384C53.7258 79.7384 53.7258 79.7384 53.7257 79.7386ZM59.0697 80.3323L57.3219 82.0802C56.8169 82.5854 56.0105 82.0464 55.6546 81.6911C55.3001 81.3369 54.7638 80.5361 55.257 80.0294L57.037 78.2512C57.1793 78.1214 57.3433 78.0683 57.5135 78.0683C57.9508 78.0683 58.4285 78.4118 58.6802 78.6636C59.0359 79.0193 59.5751 79.8258 59.0697 80.3323ZM74.2314 71.1958C74.1663 71.8471 73.5946 72.6304 72.983 72.9062C72.5934 73.082 72.402 72.9529 72.3352 72.9051C72.3351 72.9051 72.3349 72.9048 72.3348 72.9047L66.0894 68.3432C65.8021 68.1336 65.3994 68.1961 65.1896 68.4835C64.9798 68.7707 65.0425 69.1737 65.3298 69.3834L71.5752 73.945C71.5752 73.945 71.5762 73.9457 71.5768 73.946C71.5773 73.9464 71.5778 73.9469 71.5785 73.9473C72.2302 74.4171 71.8716 75.2817 71.557 75.7184C71.2272 76.1763 70.5045 76.7595 69.968 76.3732L69.1337 75.7733L63.0812 71.3518C62.794 71.142 62.391 71.2047 62.1812 71.4919C61.9713 71.7792 62.0341 72.1821 62.3213 72.3919L68.3779 76.8164C68.3779 76.8164 68.3787 76.8169 68.3791 76.8173C68.3801 76.8179 68.3809 76.8188 68.3818 76.8194C68.4651 76.8793 68.7184 77.0613 68.6694 77.5508C68.6042 78.2022 68.065 78.9514 67.4676 79.2207C67.0185 79.4231 66.7658 79.241 66.6833 79.1817L65.9652 78.6635L65.9617 78.661L60.7302 74.8417C60.4429 74.6318 60.04 74.6948 59.8303 74.9821C59.6206 75.2694 59.6834 75.6722 59.9707 75.8819L65.2051 79.7034C65.2051 79.7034 65.2058 79.7037 65.2061 79.7039C65.2068 79.7044 65.2073 79.705 65.208 79.7054C65.7475 80.0948 65.434 80.9429 65.0915 81.4178C64.798 81.8252 64.0897 82.4854 63.5098 82.0677L60.5551 79.9428C60.5915 79.2199 60.2633 78.4248 59.5915 77.753C59.1367 77.2981 58.6252 77.0006 58.118 76.8672C58.3876 76.025 58.0826 74.9968 57.2448 74.1599C56.6308 73.5465 55.9142 73.2207 55.2438 73.1974C55.2206 72.5259 54.894 71.8079 54.2791 71.193C53.1552 70.0688 51.6866 69.9056 50.7876 70.8047L50.3007 71.2917C49.9399 70.3032 49.0117 69.4277 48.0087 69.1596C47.2581 68.9591 46.5608 69.1241 46.0384 69.6215L45.6521 69.3475C45.0314 68.9041 44.3601 68.6886 43.5999 68.6886H42.4351V58.6612H47.7594C47.791 58.6612 47.8227 58.659 47.8539 58.6544L55.2204 57.561C56.2043 57.4145 57.105 57.6483 57.8956 58.2562L59.3384 59.3695L56.4424 61.5799C55.1385 62.577 55.4206 64.361 56.3731 65.608C57.3262 66.8555 58.9736 67.5975 60.2787 66.6013L63.5075 64.1372C64.1099 63.6749 64.9202 63.6773 65.5235 64.1422L70.8888 68.2804C70.8944 68.2848 70.9001 68.289 70.9059 68.2931L73.9393 70.4768C74.0852 70.5816 74.2741 70.7701 74.2316 71.196L74.2314 71.1958ZM77.2685 68.6883C76.5064 68.6883 75.834 68.9038 75.215 69.346L74.8797 69.5839C74.8205 69.5303 74.7581 69.4788 74.6911 69.4308L71.667 67.2537L66.31 63.1218C65.2372 62.2949 63.7959 62.2921 62.725 63.1136L59.497 65.5774C58.7342 66.1592 57.7896 65.3402 57.3967 64.8258C57.0039 64.3117 56.4626 63.1855 57.2243 62.6032L60.787 59.884C60.787 59.884 60.7872 59.8838 60.7873 59.8838C60.7874 59.8838 62.9432 58.2365 62.9432 58.2365C63.7298 57.6355 64.6244 57.405 65.6029 57.5517L73.0084 58.654C73.0397 58.6588 73.0714 58.661 73.1032 58.661H78.4245V68.6884H77.2688L77.2685 68.6883ZM84.3619 71.0757H79.7121V56.2737H84.3619V71.0757ZM63.1472 50.0847C63.1472 51.2283 62.2621 52.1897 61.0735 52.4496V52.9867C61.0735 53.3425 60.7852 53.6307 60.4295 53.6307C60.0738 53.6307 59.7855 53.3424 59.7855 52.9867V52.4496C58.597 52.1897 57.7118 51.2283 57.7118 50.0847C57.7118 49.7289 58.0001 49.4407 58.3558 49.4407C58.7115 49.4407 58.9998 49.729 58.9998 50.0847C58.9998 50.7169 59.6411 51.2312 60.4295 51.2312C61.2179 51.2312 61.8592 50.7169 61.8592 50.0847C61.8592 49.332 61.4699 49.1787 60.3576 48.9326C59.412 48.7235 57.9829 48.4073 57.9829 46.729C57.9829 45.715 58.7479 44.8592 59.7855 44.6039V44.0585C59.7855 43.7029 60.0738 43.4145 60.4295 43.4145C60.7852 43.4145 61.0735 43.7029 61.0735 44.0585V44.6037C62.1128 44.8587 62.8792 45.7146 62.8792 46.729C62.8792 47.0848 62.5909 47.373 62.2353 47.373C61.8796 47.373 61.5913 47.0847 61.5913 46.729C61.5913 46.2331 61.0592 45.8139 60.4296 45.8139C59.8 45.8139 59.2709 46.233 59.2709 46.729C59.2709 47.2972 59.5454 47.4338 60.6358 47.675C61.6359 47.8963 63.1472 48.2305 63.1472 50.0847Z" fill="white"/>
<defs>
<filter id="filter0_d_70959_3169" x="-7.47031" y="-7.4" width="135.8" height="135.8" filterUnits="userSpaceOnUse" color-interpolation-filters="sRGB">
<feFlood flood-opacity="0" result="BackgroundImageFix"/>
<feColorMatrix in="SourceAlpha" type="matrix" values="0 0 0 0 0 0 0 0 0 0 0 0 0 0 0 0 0 0 127 0" result="hardAlpha"/>
<feOffset dy="4"/>
<feGaussianBlur stdDeviation="15.7"/>
<feComposite in2="hardAlpha" operator="out"/>
<feColorMatrix type="matrix" values="0 0 0 0 0.854902 0 0 0 0 0.686275 0 0 0 0 0.584314 0 0 0 1 0"/>
<feBlend mode="normal" in2="BackgroundImageFix" result="effect1_dropShadow_70959_3169"/>
<feBlend mode="normal" in="SourceGraphic" in2="effect1_dropShadow_70959_3169" result="shape"/>
</filter>
</defs>
</svg>
