<svg width="481" height="100" viewBox="0 0 481 100" fill="none" xmlns="http://www.w3.org/2000/svg">
<path d="M83.0737 25.9264L70.3118 41.0052C69.2908 42.2225 70.7437 43.9502 72.1181 43.1256L77.0265 40.2198C77.6548 39.8271 78.4401 40.0235 78.8721 40.6125L82.9951 46.4241C83.5842 47.2094 84.7622 47.2094 85.3119 46.4241L89.435 40.6125C89.8669 40.0235 90.6523 39.8271 91.3198 40.2198L96.189 43.1256C97.5634 43.9502 99.0162 42.2225 97.9953 41.0052L85.2334 25.9264C84.6836 25.2589 83.6234 25.2589 83.0737 25.9264Z" fill="white"/>
<path d="M163.336 30.1671C160.902 27.3006 156.464 27.3006 153.991 30.1671L139.54 47.2877L136.556 50.7825C135.064 52.5495 132.315 52.5495 130.823 50.7825L90.181 2.7978C87.0396 -0.9326 81.2674 -0.9326 78.126 2.7978L1.82948 92.8771C-0.251692 95.3117 1.51534 99.0814 4.69599 99.0814H59.7488C62.9688 99.0814 64.6965 95.3117 62.6154 92.8771L51.8561 80.1938C50.8744 78.9765 49.2252 78.5445 47.7723 79.055L34.9319 83.4922C31.3193 84.7095 28.3742 80.4294 30.8481 77.5236L40.1937 66.4502L45.6126 60.0496L81.3066 17.9157C82.7988 16.1487 85.5082 16.1487 87.0004 17.9157L122.694 60.0496L125.718 63.6229L128.113 66.4502L131.49 70.377L131.765 70.7303L137.498 77.4843C139.972 80.4294 137.027 84.7095 133.414 83.4529L132.629 83.2174L123.755 80.1545L123.323 79.9975L121.831 79.487L120.535 79.055C119.082 78.5445 117.472 78.9765 116.451 80.1545L105.692 92.8771C103.61 95.3117 105.378 99.0814 108.558 99.0814H163.65C166.831 99.0814 168.559 95.3117 166.517 92.8771L165.025 91.1494L145.509 68.0601L139.736 61.2669L139.462 60.9528L145.273 54.0417L155.797 41.6332C157.289 39.8269 160.038 39.8269 161.53 41.6332L186.386 71.0052L190.313 75.5995L198.166 84.9059C200.247 87.3405 198.52 91.0709 195.3 91.0709L184.776 91.1101C181.595 91.1101 179.868 94.8405 181.91 97.2751L182.302 97.7463C183.009 98.5709 184.069 99.0814 185.169 99.0814H213.598C216.779 99.0814 218.507 95.3117 216.465 92.8771L163.336 30.1671Z" fill="white"/>
<path d="M229.109 44.9316L249.528 20.0754H229.581V15.3633H255.693V19.447L235.785 44.3426H255.772V49.0154H229.109V44.9316Z" fill="white"/>
<path fill-rule="evenodd" clip-rule="evenodd" d="M281.178 49.4865C279.241 49.4865 277.487 49.1462 275.916 48.4656C274.346 47.785 272.998 46.8687 271.872 45.7169C270.746 44.5389 269.869 43.1775 269.241 41.633C268.639 40.0885 268.338 38.4393 268.338 36.6854C268.338 34.9576 268.639 33.3083 269.241 31.7377C269.869 30.1931 270.746 28.8188 271.872 27.6146C272.998 26.4366 274.346 25.5073 275.916 24.8267C277.487 24.146 279.254 23.8057 281.218 23.8057C283.155 23.8057 284.896 24.1591 286.44 24.8659C288.011 25.5465 289.346 26.4627 290.445 27.6146C291.571 28.7664 292.422 30.1146 292.998 31.6591C293.574 33.1775 293.862 34.7743 293.862 36.4497C293.862 36.8424 293.849 37.2089 293.822 37.5492C293.796 37.8634 293.77 38.1383 293.744 38.3739H273.875C273.979 39.4734 274.241 40.4681 274.66 41.3582C275.079 42.2482 275.629 43.0074 276.309 43.6357C276.99 44.2901 277.762 44.7875 278.626 45.1279C279.516 45.4944 280.432 45.6776 281.375 45.6776C282.055 45.6776 282.736 45.586 283.417 45.4027C284.097 45.2195 284.725 44.9708 285.301 44.6567C285.877 44.3164 286.388 43.9106 286.833 43.4393C287.252 42.9681 287.592 42.4446 287.854 41.8687L292.33 43.1645C291.466 45.0232 290.053 46.5414 288.089 47.7195C286.1 48.8975 283.796 49.4865 281.178 49.4865ZM288.718 34.7612C288.613 33.7141 288.351 32.7455 287.932 31.8555C287.513 30.9916 286.964 30.2455 286.283 29.6173C285.629 28.989 284.856 28.5047 283.966 28.1644C283.076 27.8241 282.147 27.6539 281.178 27.6539C280.184 27.6539 279.254 27.8241 278.39 28.1644C277.526 28.5047 276.767 28.989 276.113 29.6173C275.432 30.2455 274.896 30.9916 274.503 31.8555C274.084 32.7455 273.822 33.7141 273.718 34.7612H288.718Z" fill="white"/>
<path d="M329.79 49.0153H324.567V35.1539C324.567 32.7979 324.188 31.0963 323.429 30.0491C322.67 28.9758 321.583 28.4392 320.17 28.4392C319.41 28.4392 318.651 28.5832 317.892 28.8711C317.107 29.1591 316.387 29.5649 315.732 30.0884C315.052 30.612 314.45 31.2272 313.926 31.934C313.429 32.6408 313.036 33.4262 312.748 34.29V49.0153H307.525V24.2376H312.277V29.2246C313.219 27.5492 314.594 26.2271 316.4 25.2585C318.18 24.2899 320.17 23.8057 322.368 23.8057C323.834 23.8057 325.052 24.0806 326.02 24.6303C326.989 25.1539 327.748 25.8868 328.298 26.8292C328.848 27.7455 329.24 28.8188 329.476 30.0491C329.685 31.2533 329.79 32.5361 329.79 33.8974V49.0153Z" fill="white"/>
<path fill-rule="evenodd" clip-rule="evenodd" d="M345.891 49.0154V15.3633H360.027C361.545 15.3633 362.946 15.6774 364.228 16.3057C365.511 16.9601 366.611 17.7979 367.527 18.8188C368.443 19.8398 369.163 21.0047 369.687 22.3136C370.21 23.6225 370.472 24.9576 370.472 26.3188C370.472 27.7325 370.223 29.1068 369.726 30.4419C369.229 31.7508 368.535 32.9158 367.645 33.9368C366.781 34.9577 365.721 35.7824 364.464 36.4106C363.208 37.0127 361.82 37.3137 360.302 37.3137H351.231V49.0154H345.891ZM351.192 32.6409H359.948C360.707 32.6409 361.401 32.4839 362.03 32.1697C362.632 31.8556 363.155 31.4105 363.6 30.8346C364.045 30.2587 364.399 29.5912 364.66 28.832C364.896 28.0728 365.014 27.2351 365.014 26.3188C365.014 25.3764 364.87 24.5256 364.582 23.7665C364.294 23.0073 363.901 22.3528 363.404 21.8031C362.906 21.2533 362.331 20.8215 361.676 20.5073C361.022 20.2194 360.354 20.0754 359.673 20.0754H351.192V32.6409Z" fill="white"/>
<path fill-rule="evenodd" clip-rule="evenodd" d="M395.366 49.4865C393.455 49.4865 391.701 49.1462 390.104 48.4656C388.533 47.785 387.185 46.8687 386.059 45.7169C384.934 44.5389 384.07 43.1775 383.468 41.633C382.84 40.0885 382.525 38.4393 382.525 36.6854C382.525 34.9576 382.84 33.3083 383.468 31.7377C384.07 30.1931 384.934 28.8188 386.059 27.6146C387.185 26.4366 388.533 25.5073 390.104 24.8267C391.701 24.146 393.481 23.8057 395.444 23.8057C397.355 23.8057 399.096 24.1591 400.667 24.8659C402.238 25.5465 403.573 26.4627 404.672 27.6146C405.772 28.7664 406.622 30.1146 407.225 31.6591C407.8 33.1775 408.088 34.7743 408.088 36.4497C408.088 36.8424 408.075 37.2089 408.049 37.5492C407.997 37.8634 407.958 38.1383 407.931 38.3739H388.101C388.18 39.4734 388.429 40.4681 388.847 41.3582C389.292 42.2482 389.855 43.0074 390.536 43.6357C391.217 44.2901 391.989 44.7875 392.853 45.1279C393.717 45.4944 394.62 45.6776 395.562 45.6776C396.269 45.6776 396.963 45.586 397.643 45.4027C398.324 45.2195 398.939 44.9708 399.489 44.6567C400.065 44.3164 400.575 43.9106 401.02 43.4393C401.465 42.9681 401.819 42.4446 402.081 41.8687L406.518 43.1645C405.654 45.0232 404.24 46.5414 402.277 47.7195C400.314 48.8975 398.01 49.4865 395.366 49.4865ZM402.905 34.7612C402.827 33.7141 402.565 32.7455 402.12 31.8555C401.701 30.9916 401.164 30.2455 400.51 29.6173C399.829 28.989 399.057 28.5047 398.193 28.1644C397.303 27.8241 396.361 27.6539 395.366 27.6539C394.397 27.6539 393.481 27.8241 392.617 28.1644C391.753 28.5047 390.981 28.989 390.3 29.6173C389.646 30.2455 389.109 30.9916 388.69 31.8555C388.298 32.7455 388.049 33.7141 387.944 34.7612H402.905Z" fill="white"/>
<path fill-rule="evenodd" clip-rule="evenodd" d="M428.429 49.4865C427.224 49.4865 426.099 49.2901 425.052 48.8975C424.031 48.5048 423.154 47.9682 422.421 47.2876C421.688 46.5808 421.099 45.7561 420.654 44.8137C420.235 43.8713 420.025 42.8373 420.025 41.7116C420.025 40.5598 420.274 39.5126 420.771 38.5702C421.295 37.6016 422.015 36.777 422.931 36.0964C423.874 35.3896 424.986 34.8529 426.269 34.4864C427.552 34.0937 428.965 33.8974 430.51 33.8974C431.662 33.8974 432.813 34.0021 433.965 34.2115C435.091 34.4209 436.112 34.6959 437.028 35.0362V33.3477C437.028 31.5152 436.505 30.0884 435.457 29.0675C434.437 28.0203 432.944 27.4968 430.981 27.4968C429.646 27.4968 428.337 27.7455 427.054 28.2429C425.772 28.7403 424.45 29.4471 423.088 30.3633L421.478 27.0256C424.672 24.879 427.997 23.8057 431.452 23.8057C434.855 23.8057 437.512 24.6826 439.423 26.4366C441.308 28.1643 442.251 30.6513 442.251 33.8974V42.8503C442.251 43.4524 442.355 43.8844 442.565 44.1462C442.8 44.408 443.18 44.5519 443.704 44.5781V49.0153C443.206 49.12 442.748 49.1855 442.329 49.2116C441.884 49.2378 441.492 49.2509 441.151 49.2509C440.156 49.1986 439.397 48.9368 438.874 48.4656C438.35 47.9944 438.023 47.353 437.892 46.5414L437.735 45.01C436.635 46.4498 435.274 47.5624 433.651 48.3478C432.028 49.1069 430.287 49.4865 428.429 49.4865ZM429.842 45.6776C431.099 45.6776 432.29 45.4419 433.416 44.9707C434.541 44.5257 435.418 43.8844 436.046 43.0467C436.701 42.4708 437.028 41.8686 437.028 41.2403V37.9812C436.138 37.6409 435.196 37.3791 434.201 37.1959C433.206 36.9864 432.238 36.8817 431.295 36.8817C429.436 36.8817 427.918 37.2874 426.74 38.0989C425.536 38.9105 424.934 39.9707 424.934 41.2796C424.934 42.5362 425.392 43.5833 426.308 44.421C427.224 45.2587 428.402 45.6776 429.842 45.6776Z" fill="white"/>
<path d="M475.315 49.0159L467.422 37.5891L463.299 41.4766V49.0159H458.076V14.4214H463.299V36.3718L474.726 24.2774H480.341L470.76 34.6833L480.93 49.0159H475.315Z" fill="white"/>
<path d="M267.707 74.6177C267.707 73.4659 267.916 72.3141 268.335 71.1623C268.754 70.0104 269.356 68.9763 270.142 68.0601C270.927 67.1439 271.896 66.3978 273.047 65.8219C274.199 65.2459 275.495 64.958 276.935 64.958C278.663 64.958 280.155 65.3507 281.411 66.136C282.642 66.9214 283.571 67.9423 284.199 69.1989L281.804 70.8088C281.542 70.2329 281.228 69.7486 280.862 69.3559C280.469 68.9371 280.05 68.6099 279.605 68.3742C279.16 68.1386 278.702 67.9685 278.231 67.8638C277.759 67.7852 277.288 67.7459 276.817 67.7459C275.848 67.7459 274.985 67.9423 274.225 68.3349C273.466 68.7538 272.838 69.3036 272.341 69.9843C271.817 70.6387 271.437 71.3848 271.202 72.2225C270.94 73.0602 270.809 73.8978 270.809 74.7355C270.809 75.678 270.953 76.5812 271.241 77.4451C271.555 78.3089 271.987 79.068 272.537 79.7225C273.061 80.3769 273.702 80.9005 274.461 81.2932C275.194 81.6859 276.019 81.8822 276.935 81.8822C277.38 81.8822 277.851 81.8167 278.349 81.6859C278.846 81.5811 279.317 81.3848 279.762 81.0968C280.207 80.8351 280.626 80.5078 281.019 80.1152C281.385 79.7225 281.699 79.2382 281.961 78.6623L284.513 80.1152C284.199 80.8481 283.767 81.4896 283.218 82.0393C282.668 82.5891 282.04 83.0602 281.333 83.4529C280.652 83.8456 279.919 84.1336 279.134 84.3168C278.349 84.5263 277.576 84.6309 276.817 84.6309C275.456 84.6309 274.225 84.343 273.126 83.767C272.026 83.1649 271.071 82.4058 270.259 81.4895C269.448 80.5471 268.82 79.4738 268.375 78.2696C267.93 77.0916 267.707 75.8743 267.707 74.6177Z" fill="white"/>
<path fill-rule="evenodd" clip-rule="evenodd" d="M296.02 84.4737L303.834 65.0757H306.347L314.122 84.4737H310.863L308.781 79.1726H301.321L299.279 84.4737H296.02ZM305.09 68.4919L301.87 76.9344H308.192L305.09 68.4919Z" fill="white"/>
<path fill-rule="evenodd" clip-rule="evenodd" d="M327.395 84.4737V65.0757H335.523C336.387 65.0757 337.185 65.2589 337.918 65.6254C338.651 65.9919 339.279 66.4762 339.803 67.0783C340.353 67.6542 340.772 68.3218 341.06 69.0809C341.348 69.8401 341.492 70.6123 341.492 71.3977C341.492 72.2092 341.361 72.9945 341.099 73.7537C340.811 74.5129 340.405 75.1805 339.882 75.7564C339.384 76.3585 338.782 76.8296 338.075 77.17C337.342 77.5365 336.544 77.7198 335.68 77.7198H330.418V84.4737H327.395ZM330.457 75.0103H335.523C335.942 75.0103 336.334 74.9186 336.701 74.7354C337.067 74.5522 337.368 74.3035 337.604 73.9894C337.866 73.649 338.075 73.2694 338.232 72.8505C338.363 72.4055 338.429 71.9212 338.429 71.3977C338.429 70.8479 338.35 70.3505 338.193 69.9055C338.036 69.4866 337.8 69.1071 337.486 68.7668C337.198 68.4526 336.871 68.217 336.505 68.0599C336.138 67.8767 335.758 67.7851 335.366 67.7851H330.457V75.0103Z" fill="white"/>
<path d="M355.232 84.4736V65.1147H358.295V84.4736H355.232Z" fill="white"/>
<path d="M387.786 67.7851H381.346V84.4737H378.284V67.7851H371.844V65.0757H387.786V67.7851Z" fill="white"/>
<path fill-rule="evenodd" clip-rule="evenodd" d="M397.525 84.4737L405.3 65.0757H407.813L415.588 84.4737H412.368L410.287 79.1726H402.787L400.785 84.4737H397.525ZM406.596 68.4919L403.376 76.9344H409.698L406.596 68.4919Z" fill="white"/>
<path d="M428.859 84.4737V65.0757H431.922V81.7643H442.328V84.4737H428.859Z" fill="white"/>
</svg>
