<svg width="129" height="113" viewBox="0 0 129 113" fill="none" xmlns="http://www.w3.org/2000/svg">
<g filter="url(#filter0_d_70959_3185)">
<rect x="23.9297" y="20" width="73" height="73" rx="14" fill="#D9D9D9"/>
<rect x="23.9297" y="20" width="73" height="73" rx="14" fill="#A68272"/>
</g>
<path d="M49.8047 53.4138H48.2577V50.1348C48.3182 47.06 45.7131 44.2912 42.6328 44.3435C39.5314 44.3435 37.0079 46.9415 37.0079 50.1348V53.4138H35.4609C34.995 53.4138 34.6172 53.7916 34.6172 54.2575V65.8014C34.6172 66.2678 34.995 66.6452 35.4609 66.6452H38.6015V81.4685C38.6015 81.9348 38.9793 82.3122 39.4453 82.3122H45.8204C46.2863 82.3122 46.6641 81.9348 46.6641 81.4685V66.6452H49.8047C50.2706 66.6452 50.6484 66.2678 50.6484 65.8014V54.2575C50.6484 53.7916 50.2706 53.4138 49.8047 53.4138ZM38.6954 50.1348C38.8751 44.6749 46.4306 44.7493 46.5702 50.1349C46.5702 50.1348 46.5702 53.4138 46.5702 53.4138H38.6954V50.1348ZM44.9766 80.6247H40.289V66.6452H44.9766V80.6247ZM48.9609 64.9577C45.4391 64.9577 39.8266 64.9577 36.3047 64.9577V55.1013H48.9609V64.9577Z" fill="white"/>
<path d="M84.399 48.2878H81.8678V43.5982C81.8678 43.1322 81.49 42.7544 81.024 42.7544H78.1467V32.5314C78.1467 32.0654 77.7689 31.6876 77.3029 31.6876C75.119 31.7046 56.0484 31.6754 53.3574 31.6877C52.8915 31.6876 52.5137 32.0654 52.5137 32.5314V65.9271C52.5137 69.8443 55.981 73.0314 60.2426 73.0314C60.3738 73.0033 80.3596 73.0855 80.4716 73.0028C82.9802 73.2656 85.2651 71.3219 85.2427 68.9601C85.2428 68.9601 85.2428 49.1316 85.2428 49.1316C85.2428 48.6656 84.865 48.2878 84.399 48.2878ZM80.1803 44.4419V48.2878H78.1467V44.4419H80.1803ZM60.2426 71.3439C56.9112 71.3439 54.2012 68.914 54.2012 65.9271V33.3751H76.4592C76.4591 42.0404 76.4593 60.204 76.4592 68.9561C76.4648 69.8209 76.7877 70.6524 77.2964 71.3439H60.2426ZM83.5553 68.9601C83.5794 70.409 82.0171 71.5578 80.4509 71.3142C79.872 71.2357 79.343 71.0051 78.9258 70.618C78.92 70.6122 78.9138 70.6073 78.9076 70.6015C78.424 70.1747 78.1467 69.5748 78.1467 68.956V49.9753H83.5553V68.9601Z" fill="white"/>
<path d="M70.8984 36.75H59.0859C58.62 36.75 58.2422 37.1278 58.2422 37.5938V41.8125C58.2422 42.2785 58.62 42.6562 59.0859 42.6562H70.8984C71.3644 42.6562 71.7422 42.2785 71.7422 41.8125V37.5938C71.7422 37.1278 71.3644 36.75 70.8984 36.75ZM70.0547 40.9688H59.9297V38.4375H70.0547V40.9688Z" fill="white"/>
<path d="M70.0547 48.5625C71.1622 48.5441 71.1648 46.8939 70.0546 46.875L64.9922 46.875C64.5262 46.875 64.1484 47.2528 64.1484 47.7188C64.1484 48.1847 64.5262 48.5625 64.9922 48.5625H70.0547Z" fill="white"/>
<path d="M70.8979 51.0938H59.0854C57.98 51.1115 57.9735 52.7622 59.0854 52.7812L70.8979 52.7812C72.0032 52.7635 72.0098 51.1128 70.8979 51.0938Z" fill="white"/>
<path d="M70.8979 55.3125H61.6167C60.5105 55.3305 60.5055 56.981 61.6167 57L70.8979 57C72.0041 56.982 72.0092 55.3315 70.8979 55.3125Z" fill="white"/>
<path d="M66.6797 60.375H59.0859C58.62 60.375 58.2422 60.7524 58.2422 61.2188V67.9688C58.2422 68.4351 58.62 68.8125 59.0859 68.8125H66.6797C67.1456 68.8125 67.5234 68.4351 67.5234 67.9688V61.2188C67.5234 60.7524 67.1456 60.375 66.6797 60.375ZM65.8359 67.125H59.9297V62.0625H65.8359V67.125Z" fill="white"/>
<defs>
<filter id="filter0_d_70959_3185" x="-7.47031" y="-7.4" width="135.8" height="135.8" filterUnits="userSpaceOnUse" color-interpolation-filters="sRGB">
<feFlood flood-opacity="0" result="BackgroundImageFix"/>
<feColorMatrix in="SourceAlpha" type="matrix" values="0 0 0 0 0 0 0 0 0 0 0 0 0 0 0 0 0 0 127 0" result="hardAlpha"/>
<feOffset dy="4"/>
<feGaussianBlur stdDeviation="15.7"/>
<feComposite in2="hardAlpha" operator="out"/>
<feColorMatrix type="matrix" values="0 0 0 0 0.854902 0 0 0 0 0.686275 0 0 0 0 0.584314 0 0 0 1 0"/>
<feBlend mode="normal" in2="BackgroundImageFix" result="effect1_dropShadow_70959_3185"/>
<feBlend mode="normal" in="SourceGraphic" in2="effect1_dropShadow_70959_3185" result="shape"/>
</filter>
</defs>
</svg>
